<?xml version="1.0" standalone="no"?>
<!DOCTYPE svg PUBLIC "-//W3C//DTD SVG 20010904//EN"
 "http://www.w3.org/TR/2001/REC-SVG-20010904/DTD/svg10.dtd">
<svg version="1.0" xmlns="http://www.w3.org/2000/svg"
 width="1024.000000pt" height="1024.000000pt" viewBox="0 0 1024.000000 1024.000000"
 preserveAspectRatio="xMidYMid meet">
<metadata>
Created by potrace 1.11, written by Peter Selinger 2001-2013
</metadata>
<g transform="translate(0.000000,1024.000000) scale(0.100000,-0.100000)"
fill="#000000" stroke="none">
<path d="M4679 7277 c-68 -45 -88 -138 -46 -211 12 -22 49 -60 82 -86 62 -48
77 -78 50 -100 -13 -11 -25 -11 -71 0 -49 12 -57 12 -71 -3 -23 -23 -5 -59 40
-80 46 -22 89 -21 135 2 103 53 92 175 -22 247 -50 32 -76 69 -76 111 0 39 25
60 80 69 52 8 70 19 70 44 0 23 -20 30 -84 30 -38 0 -62 -6 -87 -23z"/>
<path d="M4382 7258 c-16 -16 -15 -67 3 -162 8 -44 14 -81 12 -83 -10 -9 -82
86 -109 144 -34 72 -48 82 -82 60 -29 -19 -35 -65 -24 -181 18 -195 70 -299
119 -240 10 13 10 27 -4 82 -30 126 -31 124 45 49 38 -37 80 -70 93 -73 30 -7
61 2 69 21 5 13 -46 330 -60 378 -6 20 -44 23 -62 5z"/>
<path d="M5695 7226 c-25 -38 -57 -230 -51 -308 6 -77 19 -108 46 -108 30 0
40 31 40 119 0 45 3 81 8 81 4 0 19 -24 35 -53 44 -84 84 -127 118 -127 21 0
32 6 39 23 11 26 39 354 32 379 -6 25 -58 24 -71 -1 -6 -10 -15 -65 -20 -121
-5 -56 -12 -104 -14 -107 -10 -10 -57 105 -70 172 -13 68 -15 70 -45 73 -24 2
-34 -2 -47 -22z"/>
<path d="M6191 7196 c-13 -16 1 -56 19 -56 5 0 16 -7 24 -16 47 -46 -23 -264
-85 -264 -32 0 -23 54 25 156 40 84 43 96 30 109 -22 22 -38 19 -73 -14 -47
-44 -95 -154 -99 -228 -4 -61 -3 -64 31 -98 41 -41 71 -44 133 -16 50 23 86
68 120 152 47 115 42 208 -13 263 -29 30 -92 36 -112 12z"/>
<path d="M3815 7147 c-22 -34 -48 -274 -41 -375 7 -97 18 -122 50 -122 39 0
50 23 43 94 -6 61 -5 64 16 64 12 -1 36 2 52 6 28 7 33 4 55 -31 21 -32 31
-38 60 -38 29 0 36 4 38 23 2 12 -7 39 -19 58 l-22 37 24 18 c13 10 28 19 32
19 5 0 7 10 5 23 -3 19 -9 22 -47 22 -41 0 -47 3 -65 35 -32 57 -110 174 -121
182 -19 14 -45 8 -60 -15z m100 -197 l26 -51 -33 -14 c-31 -13 -33 -12 -36 7
-4 23 7 108 13 108 3 0 16 -23 30 -50z"/>
<path d="M6411 7057 c-7 -9 -11 -24 -9 -34 3 -15 19 -20 91 -28 l89 -10 -31
-18 c-37 -22 -69 -81 -105 -196 -28 -89 -27 -116 6 -127 33 -10 55 22 94 136
20 58 45 123 55 144 15 31 16 42 7 48 -16 10 32 0 86 -19 75 -26 114 -6 82 42
-33 51 -332 101 -365 62z"/>
<path d="M3560 7036 c-9 -12 -8 -29 5 -78 30 -111 33 -101 -32 -125 -32 -12
-65 -25 -74 -28 -13 -5 -22 9 -44 62 -30 77 -50 103 -76 103 -37 0 -41 -35
-14 -113 14 -41 25 -92 25 -114 0 -26 6 -46 19 -57 10 -9 28 -43 40 -75 27
-75 52 -98 86 -83 31 15 31 30 -1 115 -15 38 -23 72 -18 77 7 6 131 60 139 60
1 0 12 -26 24 -59 23 -63 55 -111 75 -111 7 0 21 6 31 14 18 13 17 19 -29 162
-67 208 -93 264 -121 264 -12 0 -28 -6 -35 -14z"/>
<path d="M6838 6913 c-33 -37 -118 -281 -118 -338 0 -39 29 -53 152 -70 137
-20 168 -16 168 21 0 32 -37 48 -139 62 -40 6 -75 13 -78 16 -3 3 -2 21 1 42
l7 36 47 -8 c85 -15 153 -11 166 9 17 28 -23 55 -93 63 -81 9 -86 13 -67 58
17 42 21 42 131 17 92 -20 105 -19 105 15 0 30 -29 45 -142 73 -105 26 -121
26 -140 4z"/>
<path d="M7270 6911 c-50 -27 -73 -62 -78 -124 -6 -70 11 -100 93 -173 53 -47
65 -63 63 -84 -3 -27 -7 -27 -117 -18 -24 2 -37 -2 -45 -15 -9 -15 -5 -24 26
-53 32 -28 45 -34 83 -34 84 0 145 51 145 122 0 55 -22 91 -86 139 -63 48 -74
65 -74 112 0 44 22 63 83 71 59 7 67 12 67 36 0 42 -98 55 -160 21z"/>
<path d="M3065 6861 c-82 -37 -122 -117 -112 -223 10 -117 80 -188 185 -188
29 0 66 7 81 14 39 21 88 79 96 115 14 65 -20 68 -86 6 -40 -38 -55 -45 -88
-45 -31 0 -44 6 -65 30 -44 53 -46 132 -5 184 11 13 42 32 69 41 57 19 64 27
56 61 -6 21 -12 24 -49 24 -23 0 -60 -9 -82 -19z"/>
<path d="M5428 6626 c-73 -16 -143 -44 -187 -76 -24 -16 -45 -20 -110 -20 -72
0 -88 4 -134 30 -158 89 -414 94 -732 14 -119 -30 -243 -68 -588 -180 -308
-100 -448 -138 -599 -160 -129 -19 -247 -15 -321 11 -26 9 -56 14 -65 11 -12
-4 -84 -180 -241 -588 -218 -569 -234 -606 -652 -1519 -382 -834 -429 -941
-429 -985 1 -93 64 -179 150 -205 41 -12 281 -1 770 36 102 8 791 62 1531 119
l1345 104 780 -58 c428 -33 1058 -79 1399 -104 1379 -102 1352 -100 1400 -74
69 37 115 113 115 189 0 32 -131 355 -576 1427 -317 763 -582 1391 -589 1397
-7 5 -32 62 -55 125 -24 63 -51 123 -60 133 -15 16 -19 17 -61 1 -59 -22 -236
-30 -341 -14 -128 18 -316 70 -623 170 -352 115 -551 173 -691 200 -140 27
-344 35 -436 16z m-586 -92 c61 -14 131 -46 161 -72 16 -14 17 -81 17 -1134 0
-616 -4 -1117 -8 -1114 -21 12 -327 48 -476 55 -328 15 -668 -16 -1011 -93
-190 -42 -323 -80 -670 -188 -546 -170 -723 -197 -900 -138 -105 36 -105 34
-61 147 394 1039 836 2167 847 2165 7 -2 51 -8 96 -15 180 -24 409 23 898 183
666 218 885 258 1107 204z m933 11 c148 -22 361 -81 725 -200 510 -167 677
-203 872 -192 57 4 117 9 133 13 l30 6 436 -1134 436 -1133 -28 -17 c-53 -32
-125 -51 -216 -56 -160 -8 -302 21 -693 143 -559 174 -797 233 -1115 276 -333
44 -810 32 -1088 -27 l-27 -6 2 1123 3 1122 62 34 c112 62 270 78 468 48z
m-615 -1220 l0 -1125 -30 0 -30 0 0 1125 0 1125 30 0 30 0 0 -1125z m46 -1306
c54 -33 64 -69 64 -228 0 -160 -9 -195 -60 -231 -68 -48 -161 -31 -207 39 -21
32 -23 44 -23 188 0 192 10 217 97 249 44 15 85 10 129 -17z m854 -388 c315
-31 704 -75 692 -79 -9 -3 -1135 60 -1319 74 -83 6 -107 18 -55 28 57 10 485
-5 682 -23z m-1160 10 c0 -5 -37 -12 -82 -15 -144 -11 -1129 -66 -1156 -65
-52 2 513 64 758 82 105 8 480 6 480 -2z m-1317 -88 c-7 -2 -19 -2 -25 0 -7 3
-2 5 12 5 14 0 19 -2 13 -5z m3260 -10 c-7 -2 -19 -2 -25 0 -7 3 -2 5 12 5 14
0 19 -2 13 -5z"/>
<path d="M4490 6259 c-265 -23 -530 -83 -985 -224 -419 -129 -498 -146 -697
-149 -91 -1 -93 -2 -96 -25 -6 -42 20 -51 141 -51 167 0 273 25 772 179 464
144 769 201 1081 201 64 0 104 4 112 12 18 18 14 46 -7 58 -22 11 -181 11
-321 -1z"/>
<path d="M4475 5824 c-16 -2 -73 -9 -125 -15 -208 -24 -455 -85 -863 -213
-389 -123 -545 -157 -731 -158 -61 -1 -117 -6 -123 -11 -18 -13 -16 -54 3 -61
30 -12 230 -6 324 9 125 20 308 69 565 150 524 165 744 211 1055 221 96 3 185
7 196 10 27 5 37 29 24 55 -10 17 -22 19 -153 18 -78 -1 -155 -4 -172 -5z"/>
<path d="M4295 5319 c-297 -28 -533 -84 -967 -230 -419 -141 -495 -159 -708
-166 -91 -3 -171 -10 -177 -15 -17 -14 -16 -33 3 -52 21 -21 214 -22 344 -1
145 24 228 47 580 165 346 116 500 157 700 189 184 30 324 41 517 41 143 0
174 3 187 16 19 18 19 20 6 45 -10 18 -22 19 -203 18 -106 -1 -232 -5 -282
-10z"/>
<path d="M4425 4763 c-114 -5 -290 -25 -405 -44 -195 -33 -346 -74 -709 -194
-485 -160 -591 -183 -880 -194 -150 -5 -175 -8 -185 -24 -8 -12 -8 -22 0 -35
10 -15 30 -17 185 -16 282 3 401 28 904 194 182 60 364 118 405 129 253 69
536 105 900 114 92 2 95 3 98 26 6 42 -20 51 -142 49 -61 -1 -138 -3 -171 -5z"/>
<path d="M5440 6255 c-26 -31 21 -76 63 -59 28 10 355 -16 502 -41 191 -32
392 -84 717 -186 423 -132 600 -169 737 -155 73 8 91 18 91 51 0 30 -16 35
-98 28 -134 -11 -290 22 -692 147 -439 136 -644 185 -896 215 -172 20 -407 20
-424 0z"/>
<path d="M5467 5820 c-12 -17 -13 -28 -6 -42 8 -16 23 -18 112 -18 321 0 619
-58 1147 -223 428 -134 553 -162 766 -174 115 -6 122 -5 143 16 17 17 19 25
11 41 -9 18 -21 20 -98 20 -192 0 -387 41 -777 165 -532 168 -773 218 -1117
232 -164 6 -165 6 -181 -17z"/>
<path d="M5492 5327 c-8 -9 -12 -26 -10 -39 3 -23 3 -23 218 -29 440 -13 704
-65 1195 -233 425 -146 561 -178 777 -179 132 -1 158 6 158 44 0 28 -33 40
-94 33 -73 -9 -264 12 -389 42 -56 14 -241 72 -412 129 -539 182 -775 229
-1220 242 -185 5 -212 4 -223 -10z"/>
<path d="M5532 4758 c-17 -17 -15 -46 6 -56 9 -5 121 -12 247 -15 396 -9 592
-49 1159 -237 484 -159 658 -194 931 -188 139 3 140 3 143 27 2 13 -1 28 -6
33 -6 6 -75 12 -154 14 -280 5 -421 36 -903 194 -476 156 -672 202 -975 230
-163 14 -433 13 -448 -2z"/>
</g>
</svg>
